<svg width="169" height="182" viewBox="0 0 169 182" fill="none" xmlns="http://www.w3.org/2000/svg">
<g clip-path="url(#clip0_503_24480)">
<path d="M169 94.7717C169 127.708 157.634 157.988 138.62 181.894C122.581 174.032 104.735 169.25 85.934 168.082C83.066 167.869 80.198 167.869 77.33 167.869H77.1175C33.9912 164.363 0 128.239 0 84.1471C0 37.6112 37.709 0 84.1282 0C121.837 0 153.704 24.8616 164.432 58.9667C164.432 58.9667 164.432 58.9667 164.432 59.073C166.026 65.129 167.194 71.2913 167.938 77.5598C168.575 83.2971 169 89.0344 169 94.7717Z" fill="#F7D349"/>
<path d="M129.804 106.671C119.288 106.671 110.79 115.171 110.79 125.689C110.79 131.958 113.871 137.589 118.544 140.989C115.251 144.389 110.578 146.514 105.479 146.514C95.3878 146.514 87.2087 138.333 87.2087 128.133V111.665C91.2451 111.346 95.0692 110.496 98.6807 109.009C121.412 99.4465 124.811 69.5913 125.98 59.7104C126.936 50.7857 128.317 38.6736 120.244 30.9176C118.651 29.3239 113.127 24.7554 105.585 24.4366C103.779 22.5242 101.336 21.3555 98.4683 21.3555C93.1571 21.3555 88.802 25.7116 88.802 31.0239C88.802 36.3362 93.1571 40.6923 98.4683 40.6923C103.036 40.6923 106.86 37.5049 107.816 33.3613C111.321 34.3175 113.764 36.5487 114.295 37.0799C118.969 41.5423 118.438 49.617 117.482 58.8604C116.526 67.4664 113.552 93.7092 95.3878 101.253C91.7763 102.74 87.7398 103.484 83.3847 103.271C83.1722 103.271 82.9598 103.271 82.8536 103.271C82.6411 103.271 82.4287 103.271 82.3225 103.271C77.9673 103.378 74.0371 102.74 70.3193 101.253C52.049 93.603 49.181 67.4664 48.1188 58.8604C47.0566 49.617 46.6317 41.5423 51.3055 37.0799C51.9428 36.5487 54.3859 34.3175 57.7851 33.3613C58.8473 37.6112 62.6713 40.6923 67.1326 40.6923C72.4438 40.6923 76.7989 36.3362 76.7989 31.0239C76.7989 25.7116 72.4438 21.3555 67.1326 21.3555C64.3709 21.3555 61.8215 22.5242 60.0157 24.4366C52.3677 24.7554 46.9504 29.3239 45.357 30.9176C37.2841 38.6736 38.665 50.892 39.621 59.7104C40.6832 69.5913 44.0824 99.4465 66.9202 109.009C70.5318 110.496 74.462 111.452 78.6047 111.665V128.133C78.6047 142.901 90.6078 155.013 105.373 155.013C114.083 155.013 121.837 150.87 126.723 144.389C127.679 144.601 128.742 144.601 129.698 144.601C140.214 144.601 148.712 136.102 148.712 125.583C148.712 115.065 140.214 106.671 129.804 106.671ZM136.602 126.646H131.397V131.852C131.397 132.808 130.654 133.552 129.698 133.552C128.742 133.552 127.998 132.808 127.998 131.852V126.646H122.793C121.837 126.646 121.094 125.902 121.094 124.946C121.094 123.989 121.837 123.246 122.793 123.246H127.998V117.933C127.998 116.977 128.742 116.233 129.698 116.233C130.654 116.233 131.397 116.977 131.397 117.933V123.139H136.602C137.558 123.139 138.302 123.883 138.302 124.839C138.302 125.902 137.558 126.646 136.602 126.646Z" fill="#244669"/>
</g>
<defs>
<clipPath id="clip0_503_24480">
<rect width="169" height="182" fill="white"/>
</clipPath>
</defs>
</svg>
